<svg xmlns="http://www.w3.org/2000/svg"  viewBox="0 0 24 24" width="48px" height="48px"><path d="M 3.7480469 1.9960938 A 0.750075 0.750075 0 0 0 3.0039062 2.8300781 L 4.8378906 19.388672 A 0.750075 0.750075 0 0 0 5.3652344 20.023438 L 11.78125 21.984375 A 0.750075 0.750075 0 0 0 12.220703 21.984375 L 18.636719 20.023438 A 0.750075 0.750075 0 0 0 19.164062 19.388672 L 20.998047 2.8300781 A 0.750075 0.750075 0 0 0 20.253906 1.9960938 L 3.7480469 1.9960938 z M 4.5859375 3.4960938 L 19.416016 3.4960938 L 17.726562 18.734375 L 12 20.482422 L 6.2753906 18.734375 L 4.5859375 3.4960938 z M 8.1015625 5.9960938 A 0.750075 0.750075 0 1 0 8.1015625 7.4960938 L 15.060547 7.4960938 L 14.691406 10.769531 L 10.552734 10.769531 A 0.750075 0.750075 0 1 0 10.552734 12.269531 L 14.523438 12.269531 L 14.140625 15.662109 L 12 16.296875 L 9.859375 15.662109 L 9.7050781 14.289062 A 0.750075 0.750075 0 1 0 8.2148438 14.457031 L 8.4238281 16.324219 A 0.750075 0.750075 0 0 0 8.9570312 16.958984 L 11.787109 17.798828 A 0.750075 0.750075 0 0 0 12.214844 17.798828 L 15.042969 16.958984 A 0.750075 0.750075 0 0 0 15.576172 16.324219 L 16.644531 6.8300781 A 0.750075 0.750075 0 0 0 15.900391 5.9960938 L 8.1015625 5.9960938 z"/></svg>