<svg xmlns="http://www.w3.org/2000/svg"  viewBox="0 0 24 24" width="48px" height="48px"><path d="M 3.7519531 1.9960938 A 0.750075 0.750075 0 0 0 3.0058594 2.8300781 L 4.8398438 19.388672 A 0.750075 0.750075 0 0 0 5.3671875 20.023438 L 11.783203 21.984375 A 0.750075 0.750075 0 0 0 12.220703 21.984375 L 18.638672 20.023438 A 0.750075 0.750075 0 0 0 19.164062 19.388672 L 21 2.8300781 A 0.750075 0.750075 0 0 0 20.253906 1.9960938 L 3.7519531 1.9960938 z M 4.5878906 3.4960938 L 19.416016 3.4960938 L 17.728516 18.734375 L 12.001953 20.482422 L 6.2773438 18.734375 L 4.5878906 3.4960938 z M 8.1035156 5.9960938 A 0.750075 0.750075 0 0 0 7.359375 6.8320312 L 7.8945312 11.578125 A 0.750075 0.750075 0 0 0 8.640625 12.242188 L 14.525391 12.242188 L 14.140625 15.662109 L 12.001953 16.298828 L 9.8613281 15.662109 L 9.7050781 14.289062 A 0.750075 0.750075 0 1 0 8.2148438 14.457031 L 8.4257812 16.324219 A 0.750075 0.750075 0 0 0 8.9570312 16.958984 L 11.697266 17.771484 A 0.750075 0.750075 0 0 0 11.972656 17.832031 A 0.750075 0.750075 0 0 0 12.316406 17.769531 L 15.044922 16.958984 A 0.750075 0.750075 0 0 0 15.576172 16.324219 L 16.109375 11.576172 A 0.750075 0.750075 0 0 0 15.363281 10.742188 L 9.3105469 10.742188 L 8.9433594 7.4960938 L 15.902344 7.4960938 A 0.750075 0.750075 0 1 0 15.902344 5.9960938 L 8.1035156 5.9960938 z"/></svg>